# xmcd
#
# Track frame offsets:
#	150
#	14935
#	29786
#	45876
#	61957
#	88576
#	102759
#	122555
#	134639
#	151552
#	177185
#	190578
#	210367
#	225325
#	241485
#	257665
#
# Disc length: 3643 seconds
#
# Revision: 1
# Processed by: cddbd v1.5.2PL0 Copyright (c) Steve Scherf et al.
# Submitted via: audiograbber 1.83.01
#
DISCID=ca0e3910
DTITLE=Western Union - Collection v MC83u20
DYEAR=1900
DGENRE=
TTITLE0=Ich möcht so gerne mal nach Nashville
TTITLE1=Auf der Autobahn
TTITLE2=Dieselcowboys
TTITLE3=Bärenstark
TTITLE4=Transit Cowboy
TTITLE5=Frei wie ein Adler
TTITLE6=Guter Freund
TTITLE7=Ausgerechnet mir
TTITLE8=Be-Ba-Baby
TTITLE9=Ich stell mir vor, Berlin wär Nashville
TTITLE10=Unser Lied im Radio
TTITLE11=Wir gehören doch zusammen
TTITLE12=Gott, ich hoff der Tag wird gut
TTITLE13=Nach Süden
TTITLE14=Der Liebe Gott, der muß ein Cowboy sein
TTITLE15=Wer glaubst Du, wer Du bist
EXTD=
EXTT0=
EXTT1=
EXTT2=
EXTT3=
EXTT4=
EXTT5=
EXTT6=
EXTT7=
EXTT8=
EXTT9=
EXTT10=
EXTT11=
EXTT12=
EXTT13=
EXTT14=
EXTT15=
PLAYORDER=
